<svg width="182" height="182" viewBox="0 0 182 182" fill="none" xmlns="http://www.w3.org/2000/svg">
<g id="assignment">
<mask id="mask0_5759_3218" style="mask-type:alpha" maskUnits="userSpaceOnUse" x="0" y="0" width="182" height="182">
<rect id="Bounding box" width="182" height="182" fill="#D9D9D9"/>
</mask>
<g mask="url(#mask0_5759_3218)">
<path id="assignment_2" d="M37.9167 159.25C33.7458 159.25 30.1753 157.765 27.2052 154.795C24.2351 151.825 22.75 148.254 22.75 144.083V37.9168C22.75 33.746 24.2351 30.1755 27.2052 27.2054C30.1753 24.2352 33.7458 22.7502 37.9167 22.7502H69.7667C71.4097 18.2002 74.1587 14.5349 78.0135 11.7543C81.8684 8.97377 86.1972 7.5835 91 7.5835C95.8028 7.5835 100.132 8.97377 103.986 11.7543C107.841 14.5349 110.59 18.2002 112.233 22.7502H144.083C148.254 22.7502 151.825 24.2352 154.795 27.2054C157.765 30.1755 159.25 33.746 159.25 37.9168V144.083C159.25 148.254 157.765 151.825 154.795 154.795C151.825 157.765 148.254 159.25 144.083 159.25H37.9167ZM37.9167 144.083H144.083V37.9168H37.9167V144.083ZM53.0833 128.917H106.167V113.75H53.0833V128.917ZM53.0833 98.5835H128.917V83.4168H53.0833V98.5835ZM53.0833 68.2502H128.917V53.0835H53.0833V68.2502ZM91 32.2293C92.6431 32.2293 94.0017 31.6922 95.076 30.6179C96.1504 29.5436 96.6875 28.1849 96.6875 26.5418C96.6875 24.8988 96.1504 23.5401 95.076 22.4658C94.0017 21.3915 92.6431 20.8543 91 20.8543C89.3569 20.8543 87.9983 21.3915 86.924 22.4658C85.8497 23.5401 85.3125 24.8988 85.3125 26.5418C85.3125 28.1849 85.8497 29.5436 86.924 30.6179C87.9983 31.6922 89.3569 32.2293 91 32.2293Z" fill="white"/>
</g>
</g>
</svg>
