<svg width="182" height="182" viewBox="0 0 182 182" fill="none" xmlns="http://www.w3.org/2000/svg">
<g id="event_available">
<mask id="mask0_5759_3212" style="mask-type:alpha" maskUnits="userSpaceOnUse" x="0" y="0" width="182" height="182">
<rect id="Bounding box" width="182" height="182" fill="#D9D9D9"/>
</mask>
<g mask="url(#mask0_5759_3212)">
<path id="event_available_2" d="M83.0375 139.154L56.1167 112.233L67.1125 101.237L83.0375 117.162L114.888 85.3123L125.883 96.3082L83.0375 139.154ZM37.9167 166.833C33.7458 166.833 30.1753 165.348 27.2052 162.378C24.2351 159.408 22.75 155.837 22.75 151.667V45.4998C22.75 41.329 24.2351 37.7585 27.2052 34.7884C30.1753 31.8182 33.7458 30.3332 37.9167 30.3332H45.5V15.1665H60.6667V30.3332H121.333V15.1665H136.5V30.3332H144.083C148.254 30.3332 151.825 31.8182 154.795 34.7884C157.765 37.7585 159.25 41.329 159.25 45.4998V151.667C159.25 155.837 157.765 159.408 154.795 162.378C151.825 165.348 148.254 166.833 144.083 166.833H37.9167ZM37.9167 151.667H144.083V75.8332H37.9167V151.667ZM37.9167 60.6665H144.083V45.4998H37.9167V60.6665Z" fill="white"/>
</g>
</g>
</svg>
