<svg width="182" height="182" viewBox="0 0 182 182" fill="none" xmlns="http://www.w3.org/2000/svg">
<g id="lucide:school">
<g id="Group">
<path id="Vector" d="M106.167 166.833V136.5C106.167 132.477 104.569 128.62 101.725 125.775C98.8808 122.931 95.0231 121.333 91.0007 121.333C86.9782 121.333 83.1205 122.931 80.2762 125.775C77.4319 128.62 75.834 132.477 75.834 136.5V166.833" stroke="white" stroke-width="12" stroke-linecap="round" stroke-linejoin="round"/>
<path id="Vector_2" d="M136.5 75.8332L166.834 90.9998V151.667C166.834 155.689 165.236 159.547 162.391 162.391C159.547 165.235 155.689 166.833 151.667 166.833H30.3337C26.3112 166.833 22.4535 165.235 19.6092 162.391C16.7649 159.547 15.167 155.689 15.167 151.667V90.9998L45.5003 75.8332M136.5 37.9165V166.833M30.3337 45.4998L91.0003 15.1665L151.667 45.4998M45.5003 37.9165V166.833" stroke="white" stroke-width="12" stroke-linecap="round" stroke-linejoin="round"/>
<path id="Vector_3" d="M91.0007 83.4163C99.377 83.4163 106.167 76.626 106.167 68.2497C106.167 59.8734 99.377 53.083 91.0007 53.083C82.6243 53.083 75.834 59.8734 75.834 68.2497C75.834 76.626 82.6243 83.4163 91.0007 83.4163Z" stroke="white" stroke-width="12" stroke-linecap="round" stroke-linejoin="round"/>
</g>
</g>
</svg>
