<svg width="182" height="182" viewBox="0 0 182 182" fill="none" xmlns="http://www.w3.org/2000/svg">
<g id="groups">
<mask id="mask0_5759_3207" style="mask-type:alpha" maskUnits="userSpaceOnUse" x="0" y="0" width="182" height="182">
<rect id="Bounding box" width="182" height="182" fill="#D9D9D9"/>
</mask>
<g mask="url(#mask0_5759_3207)">
<path id="groups_2" d="M0 136.5V124.556C0 119.122 2.78056 114.698 8.34167 111.285C13.9028 107.873 21.2333 106.167 30.3333 106.167C31.9764 106.167 33.5563 106.198 35.0729 106.261C36.5896 106.325 38.0431 106.483 39.4333 106.735C37.6639 109.39 36.3368 112.17 35.4521 115.077C34.5674 117.984 34.125 121.017 34.125 124.177V136.5H0ZM45.5 136.5V124.177C45.5 120.133 46.6059 116.436 48.8177 113.086C51.0295 109.737 54.1576 106.799 58.2021 104.271C62.2465 101.743 67.0809 99.8472 72.7052 98.5833C78.3295 97.3194 84.4278 96.6875 91 96.6875C97.6986 96.6875 103.86 97.3194 109.484 98.5833C115.109 99.8472 119.943 101.743 123.988 104.271C128.032 106.799 131.128 109.737 133.277 113.086C135.426 116.436 136.5 120.133 136.5 124.177V136.5H45.5ZM147.875 136.5V124.177C147.875 120.891 147.464 117.794 146.643 114.888C145.821 111.981 144.589 109.263 142.946 106.735C144.336 106.483 145.758 106.325 147.211 106.261C148.665 106.198 150.15 106.167 151.667 106.167C160.767 106.167 168.097 107.841 173.658 111.191C179.219 114.54 182 118.995 182 124.556V136.5H147.875ZM61.6146 121.333H120.575C119.311 118.806 115.804 116.594 110.053 114.698C104.302 112.802 97.9514 111.854 91 111.854C84.0486 111.854 77.6976 112.802 71.9469 114.698C66.1962 116.594 62.7521 118.806 61.6146 121.333ZM30.3333 98.5833C26.1625 98.5833 22.592 97.0983 19.6219 94.1281C16.6517 91.158 15.1667 87.5875 15.1667 83.4167C15.1667 79.1194 16.6517 75.5174 19.6219 72.6104C22.592 69.7035 26.1625 68.25 30.3333 68.25C34.6306 68.25 38.2326 69.7035 41.1396 72.6104C44.0465 75.5174 45.5 79.1194 45.5 83.4167C45.5 87.5875 44.0465 91.158 41.1396 94.1281C38.2326 97.0983 34.6306 98.5833 30.3333 98.5833ZM151.667 98.5833C147.496 98.5833 143.925 97.0983 140.955 94.1281C137.985 91.158 136.5 87.5875 136.5 83.4167C136.5 79.1194 137.985 75.5174 140.955 72.6104C143.925 69.7035 147.496 68.25 151.667 68.25C155.964 68.25 159.566 69.7035 162.473 72.6104C165.38 75.5174 166.833 79.1194 166.833 83.4167C166.833 87.5875 165.38 91.158 162.473 94.1281C159.566 97.0983 155.964 98.5833 151.667 98.5833ZM91 91C84.6806 91 79.309 88.7882 74.8854 84.3646C70.4618 79.941 68.25 74.5694 68.25 68.25C68.25 61.8042 70.4618 56.401 74.8854 52.0406C79.309 47.6802 84.6806 45.5 91 45.5C97.4458 45.5 102.849 47.6802 107.209 52.0406C111.57 56.401 113.75 61.8042 113.75 68.25C113.75 74.5694 111.57 79.941 107.209 84.3646C102.849 88.7882 97.4458 91 91 91ZM91 75.8333C93.1486 75.8333 94.9497 75.1066 96.4031 73.6531C97.8566 72.1997 98.5833 70.3986 98.5833 68.25C98.5833 66.1014 97.8566 64.3003 96.4031 62.8469C94.9497 61.3934 93.1486 60.6667 91 60.6667C88.8514 60.6667 87.0504 61.3934 85.5969 62.8469C84.1434 64.3003 83.4167 66.1014 83.4167 68.25C83.4167 70.3986 84.1434 72.1997 85.5969 73.6531C87.0504 75.1066 88.8514 75.8333 91 75.8333Z" fill="white"/>
</g>
</g>
</svg>
